<svg id="Capa_1" data-name="Capa 1" xmlns="http://www.w3.org/2000/svg" viewBox="0 0 125.58 100.44"><defs><style>.cls-1{fill:#1c3560;}</style></defs><path id="Icon_awesome-facebook-square" data-name="Icon awesome-facebook-square" class="cls-1" d="M89,16.88H36.6A7.15,7.15,0,0,0,29.45,24h0V76.4a7.15,7.15,0,0,0,7.15,7.15H57V60.89H47.65V50.23H57V42.09C57,32.84,62.53,27.73,71,27.73a57.08,57.08,0,0,1,8.26.72v9.08H74.57a5.33,5.33,0,0,0-6,4.58,5.82,5.82,0,0,0,0,1.18v6.94H78.8L77.16,60.9h-8.6V83.56H89a7.15,7.15,0,0,0,7.15-7.14V24A7.15,7.15,0,0,0,89,16.88Z"/></svg>