<svg id="SvgjsSvg1001" width="288" height="288" xmlns="http://www.w3.org/2000/svg" version="1.1" xmlns:xlink="http://www.w3.org/1999/xlink" xmlns:svgjs="http://svgjs.com/svgjs"><defs id="SvgjsDefs1002"></defs><g id="SvgjsG1008" transform="matrix(0.9167,0,0,0.9167,12.019866134643564,11.970537042999268)"><svg xmlns="http://www.w3.org/2000/svg" data-name="Capa 1" viewBox="0 0 125.58 100.44" width="288" height="288"><path fill="#ffffff" d="M62.78,39A11.25,11.25,0,1,0,74,50.22,11.25,11.25,0,0,0,62.78,39Zm0,17.66a6.42,6.42,0,1,1,6.42-6.42A6.42,6.42,0,0,1,62.78,56.64Z" class="color1c3560 svgShape"></path><path fill="#ffffff" d="M86.79,60A2.43,2.43,0,0,1,89,58.53h.27a8.3,8.3,0,1,0,0-16.6H88.8a2.48,2.48,0,0,1-2.08-1.17,2.28,2.28,0,0,0-.17-.58A2.42,2.42,0,0,1,87,37.49l.24-.24A8.31,8.31,0,0,0,75.43,25.59l-.13.14a2.5,2.5,0,0,1-1.7.7,2.36,2.36,0,0,1-1.76-.71A2.47,2.47,0,0,1,71.09,24v-.27a8.31,8.31,0,0,0-8.3-8.3h0a8.32,8.32,0,0,0-8.29,8.31v.48a2.41,2.41,0,0,1-1.17,2.07,3,3,0,0,0-.58.18A2.4,2.4,0,0,1,50.07,26l-.14-.13-.3-.3a8.3,8.3,0,0,0-11.48,12l.16.16a2.51,2.51,0,0,1,.43,2.84,2.42,2.42,0,0,1-2.18,1.59h-.27a8.31,8.31,0,0,0,0,16.61h.48a2.45,2.45,0,0,1,1.7.69,2.49,2.49,0,0,1,.09,3.49l-.25.25a8.31,8.31,0,0,0,.08,11.74,8.1,8.1,0,0,0,5.89,2.39,8.28,8.28,0,0,0,5.85-2.47l.15-.15a2.51,2.51,0,0,1,2.84-.43,2.42,2.42,0,0,1,1.59,2.18v.27a8.31,8.31,0,0,0,16.61,0v-.49a2.42,2.42,0,0,1,.7-1.7,2.48,2.48,0,0,1,3.48-.09l.08.08.17.18A8.31,8.31,0,0,0,87.41,62.87l-.15-.15a2.44,2.44,0,0,1-.54-2.57A.61.61,0,0,0,86.79,60Zm-3,6.11.19.18a3.48,3.48,0,1,1-4.93,4.91L78.88,71a7.31,7.31,0,0,0-12.39,5.21v.51a3.48,3.48,0,1,1-6.95,0V76.4a7.19,7.19,0,0,0-4.61-6.6,7.29,7.29,0,0,0-8.06,1.48l-.17.18a3.48,3.48,0,1,1-4.91-4.93l.21-.21a7.31,7.31,0,0,0-5.21-12.39h-.5a3.48,3.48,0,0,1,0-7h.32a7.17,7.17,0,0,0,6.6-4.61,7.25,7.25,0,0,0-1.46-8l-.23-.22a3.5,3.5,0,0,1-.13-4.92,3.54,3.54,0,0,1,5.09,0l.2.2a7.24,7.24,0,0,0,7.53,1.64,2.42,2.42,0,0,0,.7-.19,7.27,7.27,0,0,0,4.41-6.66v-.49a3.47,3.47,0,0,1,3.47-3.48h0a3.49,3.49,0,0,1,3.48,3.48V24a7.31,7.31,0,0,0,7.3,7.23h.08a7.29,7.29,0,0,0,5-2.09l.17-.18a3.44,3.44,0,0,1,2.45-1,3.55,3.55,0,0,1,2.47,1,3.49,3.49,0,0,1,0,5l-.19.19a7.23,7.23,0,0,0-1.64,7.54,2.88,2.88,0,0,0,.18.7,7.29,7.29,0,0,0,6.67,4.4h.5a3.48,3.48,0,1,1,0,7H89a7.28,7.28,0,0,0-6.56,4.19l-.09.18A7.26,7.26,0,0,0,83.83,66.12Z" class="color1c3560 svgShape"></path></svg></g></svg>