<svg id="SvgjsSvg1001" width="288" height="288" xmlns="http://www.w3.org/2000/svg" version="1.1" xmlns:xlink="http://www.w3.org/1999/xlink" xmlns:svgjs="http://svgjs.com/svgjs"><defs id="SvgjsDefs1002"></defs><g id="SvgjsG1008" transform="matrix(0.9167,0,0,0.9167,11.9952003177643,11.995200000000011)"><svg xmlns="http://www.w3.org/2000/svg" enable-background="new 0 0 53.6 73.6" viewBox="0 0 53.6 73.6" width="288" height="288"><polygon fill="#ffffff" points="38.2 52.2 53.6 36.8 38.2 21.5 33.5 26.2 44.1 36.8 33.5 47.4" class="color1c3560 svgShape"></polygon><path fill="#ffffff" d="M10.1 13.4h33.5v6.7h6.7V6.7c0-3.7-3-6.7-6.7-6.7H10.1C6.4 0 3.4 3 3.4 6.7v13.4h6.7V13.4zM43.5 60.2H10.1v-6.6H3.4v13.3c0 3.7 3 6.7 6.7 6.7h33.5c3.7 0 6.7-3 6.7-6.7V53.6h-6.7L43.5 60.2 43.5 60.2z" class="color1c3560 svgShape"></path><polygon fill="#ffffff" points="20.1 47.4 9.5 36.8 20.1 26.2 15.4 21.4 0 36.8 15.4 52.2" class="color1c3560 svgShape"></polygon></svg></g></svg>