<svg id="SvgjsSvg1001" width="288" height="288" xmlns="http://www.w3.org/2000/svg" version="1.1" xmlns:xlink="http://www.w3.org/1999/xlink" xmlns:svgjs="http://svgjs.com/svgjs"><defs id="SvgjsDefs1002"></defs><g id="SvgjsG1008" transform="matrix(0.9167,0,0,0.9167,11.995200000000011,11.969972693634048)"><svg xmlns="http://www.w3.org/2000/svg" data-name="Capa 1" viewBox="0 0 125.58 100.44" width="288" height="288"><path fill="#ffffff" d="M84.5,21.36H72.44a9.65,9.65,0,1,0-19.29-.31v.31H41.07a7.23,7.23,0,0,0-7.22,7.22V81.66a7.24,7.24,0,0,0,7.22,7.23H84.5a7.25,7.25,0,0,0,7.23-7.23V28.59A7.23,7.23,0,0,0,84.5,21.36ZM48.32,75.63A3.61,3.61,0,1,1,51.94,72,3.61,3.61,0,0,1,48.32,75.63Zm0-14.47a3.62,3.62,0,1,1,3.62-3.61A3.61,3.61,0,0,1,48.32,61.16Zm0-14.48a3.61,3.61,0,1,1,3.62-3.61,3.61,3.61,0,0,1-3.62,3.61h0ZM62.79,17.73a3.62,3.62,0,1,1-3.61,3.61A3.62,3.62,0,0,1,62.79,17.73Zm19.3,55.48a1.21,1.21,0,0,1-1.2,1.21H59.18A1.21,1.21,0,0,1,58,73.21V70.8a1.21,1.21,0,0,1,1.21-1.2H80.89a1.2,1.2,0,0,1,1.2,1.2Zm0-14.47a1.2,1.2,0,0,1-1.2,1.2H59.18A1.21,1.21,0,0,1,58,58.74V56.33a1.21,1.21,0,0,1,1.21-1.21H80.89a1.21,1.21,0,0,1,1.2,1.21Zm0-14.48a1.21,1.21,0,0,1-1.2,1.21H59.18A1.21,1.21,0,0,1,58,44.26V41.85a1.21,1.21,0,0,1,1.21-1.2H80.89a1.2,1.2,0,0,1,1.2,1.2Z" data-name="Icon awesome-clipboard-list" class="color1c3560 svgShape"></path></svg></g></svg>