<svg id="Capa_1" data-name="Capa 1" xmlns="http://www.w3.org/2000/svg" viewBox="0 0 125.58 100.44"><defs><style>.cls-1{fill:#1c3560;}</style></defs><g id="Circle_Button_" data-name="Circle Button "><path id="Icon_awesome-linkedin" data-name="Icon awesome-linkedin" class="cls-1" d="M91.06,17.24H34.51A4.74,4.74,0,0,0,29.81,22V78.45a4.73,4.73,0,0,0,4.7,4.75H91.06a4.75,4.75,0,0,0,4.71-4.75V22A4.75,4.75,0,0,0,91.06,17.24ZM49.75,73.78H40V42.3h9.79V73.78ZM44.86,38a5.67,5.67,0,1,1,5.66-5.67A5.67,5.67,0,0,1,44.86,38ZM86.39,73.78H76.61V58.47c0-3.65-.07-8.35-5.07-8.35s-5.88,4-5.88,8.08V73.78H55.88V42.3h9.38v4.3h.13a10.3,10.3,0,0,1,9.26-5.08c9.9,0,11.74,6.52,11.74,15Z"/></g></svg>