<svg id="SvgjsSvg1001" width="288" height="288" xmlns="http://www.w3.org/2000/svg" version="1.1" xmlns:xlink="http://www.w3.org/1999/xlink" xmlns:svgjs="http://svgjs.com/svgjs"><defs id="SvgjsDefs1002"></defs><g id="SvgjsG1008" transform="matrix(0.9167,0,0,0.9167,12.013826066201943,11.995201112174982)"><svg xmlns="http://www.w3.org/2000/svg" enable-background="new 0 0 64.4 56.3" viewBox="0 0 64.4 56.3" width="288" height="288"><path fill="#a7a1f3" d="M64.4,16.1L48.3,0v8c-16.2,0-29.9,12.3-31.7,28.4c1.7-7.2,8.2-12.3,15.6-12.3h16.1v8L64.4,16.1z" class="color1c3560 svgShape"></path><path fill="#a7a1f3" d="M40.3,48.3H8.1V8.1h16.1v-8H6.1c-3.3,0-6,2.7-6,6v44.2c0,3.3,2.7,6,6,6h36.2c3.3,0,6-2.7,6-6v-10h-8L40.3,48.3z
	" class="color1c3560 svgShape"></path></svg></g></svg>