<svg id="Capa_1" data-name="Capa 1" xmlns="http://www.w3.org/2000/svg" viewBox="0 0 125.58 100.44"><defs><style>.cls-1{fill:#1c3560;}</style></defs><path class="cls-1" d="M79.07,49.17a22.83,22.83,0,1,0-32.56,0A23.62,23.62,0,0,0,27.17,72.39v5.54A12.19,12.19,0,0,0,39.34,90.11H86.23A12.2,12.2,0,0,0,98.41,77.93V72.39A23.62,23.62,0,0,0,79.07,49.17Zm-33.33-16a17.05,17.05,0,1,1,17,17A17,17,0,0,1,45.74,33.17ZM92.63,77.93a6.4,6.4,0,0,1-6.4,6.39H39.34A6.39,6.39,0,0,1,33,77.93V72.39A17.88,17.88,0,0,1,50,54.56l4.19,29.76,6.44-22.38L56.4,54.48H69.18l-4.26,7.46,6.47,22.38,4.16-29.76A17.88,17.88,0,0,1,92.63,72.39Z"/></svg>